<svg width="145" height="38" viewBox="0 0 145 38" fill="none" xmlns="http://www.w3.org/2000/svg">
<g clip-path="url(#clip0_1_51)" filter="url(#filter0_d_1_51)">
<path d="M141 29.0565H137.259L130.867 21.564L124.506 29.0565H120.787L129.001 19.3785L121.233 10.2765H124.974L130.862 17.1795L136.721 10.2765H140.441L132.727 19.3665L141 29.055V29.0565ZM109.364 30C103.561 30 98.8582 25.3725 98.8582 19.665C98.8582 13.959 103.563 9.3345 109.365 9.3345C115.167 9.3345 119.87 13.9605 119.87 19.6665C119.87 25.374 115.166 30 109.362 30H109.364ZM109.385 12.126C106.289 12.126 103.5 13.9575 102.315 16.77C101.736 18.1454 101.585 19.6621 101.881 21.124C102.177 22.5858 102.906 23.9257 103.974 24.9705C105.051 26.0247 106.415 26.7409 107.897 27.0307C109.379 27.3205 110.914 27.1711 112.311 26.601C113.702 26.0406 114.895 25.08 115.735 23.8417C116.576 22.6034 117.028 21.1436 117.033 19.6485C117.033 15.4935 113.608 12.126 109.385 12.126ZM85.0016 29.52C79.1227 29.52 77.3582 28.11 77.3582 28.11V0.8595H80.2247V10.74C81.7212 10.065 83.3561 9.735 85.0016 9.78C90.8068 9.78 95.513 13.938 95.513 19.641C95.513 25.3455 90.8023 29.52 84.9986 29.52H85.0016ZM85.0016 12.6045C83.2928 12.6275 81.6297 13.1576 80.2247 14.127V25.761C81.7118 26.4711 83.3552 26.7947 85.0016 26.7015C89.223 26.7015 92.6465 23.8005 92.6465 19.653C92.6465 15.5055 89.22 12.603 84.9986 12.603L85.0016 12.6045ZM67.8029 0.858H70.6693V29.0505H67.8029V0.858ZM58.2475 0.858H61.1139V29.0505H58.2475V0.858ZM50.0305 5.055C49.7201 5.05698 49.4123 4.99802 49.1248 4.88149C48.8373 4.76496 48.5756 4.59315 48.3547 4.37586C48.1339 4.15857 47.9581 3.90006 47.8375 3.61509C47.7169 3.33011 47.6538 3.02426 47.6518 2.715C47.6518 1.425 48.7177 0.3765 50.0305 0.3765C51.3448 0.3765 52.4092 1.425 52.4092 2.7165C52.4092 3.336 52.1593 3.9315 51.7121 4.371C51.2635 4.81027 50.6595 5.05598 50.0305 5.055ZM40.5685 29.0505L30.5419 19.1895L39.6185 10.2555H43.6713L34.5932 19.1895L44.6197 29.0505H40.5685ZM27.6679 29.0505V0.858H30.5343V29.0505H27.6679ZM23.1273 21.3825C23.1273 26.094 19.3124 29.5125 13.2513 29.5125C9.74716 29.4202 6.42175 27.9515 4 25.4265L6.0264 23.2215C7.92332 24.9975 10.156 26.724 13.2121 26.724C16.607 26.724 20.2669 24.852 20.2669 21.489C20.2669 18.6975 18.0101 16.875 13.2678 15.438C7.8631 13.8165 5.12009 11.613 5.12009 7.467C5.12009 3.366 8.64897 0 13.6773 0C17.4335 0 19.7836 1.575 22.0704 3.585L20.0787 5.763C18.0734 4.014 16.1614 2.8305 13.8158 2.8305C10.9087 2.8305 8.03623 4.6755 8.03623 7.3305C8.03623 9.7365 9.44236 11.2695 14.4075 12.7635C18.9541 14.1405 23.1273 16.2735 23.1273 21.3825ZM51.5661 29.0505H48.6981V10.2555H51.5646V29.0505H51.5661Z" fill="#333333"/>
</g>
<defs>
<filter id="filter0_d_1_51" x="0" y="0" width="145" height="38" filterUnits="userSpaceOnUse" color-interpolation-filters="sRGB">
<feFlood flood-opacity="0" result="BackgroundImageFix"/>
<feColorMatrix in="SourceAlpha" type="matrix" values="0 0 0 0 0 0 0 0 0 0 0 0 0 0 0 0 0 0 127 0" result="hardAlpha"/>
<feOffset dy="4"/>
<feGaussianBlur stdDeviation="2"/>
<feComposite in2="hardAlpha" operator="out"/>
<feColorMatrix type="matrix" values="0 0 0 0 0 0 0 0 0 0 0 0 0 0 0 0 0 0 0.25 0"/>
<feBlend mode="normal" in2="BackgroundImageFix" result="effect1_dropShadow_1_51"/>
<feBlend mode="normal" in="SourceGraphic" in2="effect1_dropShadow_1_51" result="shape"/>
</filter>
<clipPath id="clip0_1_51">
<rect width="137" height="30" fill="white" transform="translate(4)"/>
</clipPath>
</defs>
</svg>
